  <svg
    aria-hidden="true"
    viewBox="0 0 16 16"
    fill="currentColor"
    className='size-4 shrink-0'
  >
    <path d="M8 .25a8 8 0 00-2.529 15.591c.4.074.546-.174.546-.386l-.01-1.36c-2.225.483-2.695-1.073-2.695-1.073-.364-.924-.888-1.17-.888-1.17-.726-.497.055-.487.055-.487.802.056 1.225.824 1.225.824.713 1.221 1.872.869 2.328.664.072-.516.279-.869.508-1.069-1.776-.202-3.644-.888-3.644-3.953 0-.874.312-1.588.823-2.147-.082-.202-.357-1.016.079-2.117 0 0 .671-.215 2.2.82A7.662 7.662 0 018 4.976c.68.003 1.364.092 2.003.27 1.527-1.035 2.197-.82 2.197-.82.437 1.101.162 1.915.08 2.117.512.559.822 1.273.822 2.147 0 3.073-1.87 3.749-3.653 3.947.288.248.544.735.544 1.482l-.009 2.198c0 .214.144.463.55.385A8.001 8.001 0 008 .25z" />
  </svg>